<mxfile host="app.diagrams.net" modified="2023-02-07T09:18:46.844Z" agent="5.0 (Windows NT 10.0; Win64; x64) AppleWebKit/537.36 (KHTML, like Gecko) Chrome/109.0.0.0 Safari/537.36" etag="HZcn9hR8CKfgNhU6mWrN" version="20.5.1" type="github">
  <diagram id="C5RBs43oDa-KdzZeNtuy" name="Page-1">
    <mxGraphModel dx="2249" dy="762" grid="1" gridSize="10" guides="1" tooltips="1" connect="1" arrows="1" fold="1" page="1" pageScale="1" pageWidth="827" pageHeight="1169" math="0" shadow="0">
      <root>
        <mxCell id="WIyWlLk6GJQsqaUBKTNV-0" />
        <mxCell id="WIyWlLk6GJQsqaUBKTNV-1" parent="WIyWlLk6GJQsqaUBKTNV-0" />
        <mxCell id="CEFkT6I1sK-ko6ua7co4-19" style="edgeStyle=orthogonalEdgeStyle;rounded=0;sketch=1;orthogonalLoop=1;jettySize=auto;html=1;exitX=0.5;exitY=1;exitDx=0;exitDy=0;entryX=0.5;entryY=0;entryDx=0;entryDy=0;strokeWidth=2;fontSize=16;" parent="WIyWlLk6GJQsqaUBKTNV-1" source="CEFkT6I1sK-ko6ua7co4-1" target="CEFkT6I1sK-ko6ua7co4-14" edge="1">
          <mxGeometry relative="1" as="geometry" />
        </mxCell>
        <mxCell id="CEFkT6I1sK-ko6ua7co4-22" value="5.把code传给服务器" style="edgeLabel;html=1;align=center;verticalAlign=middle;resizable=0;points=[];fontSize=16;" parent="CEFkT6I1sK-ko6ua7co4-19" vertex="1" connectable="0">
          <mxGeometry x="0.1143" y="-5" relative="1" as="geometry">
            <mxPoint as="offset" />
          </mxGeometry>
        </mxCell>
        <mxCell id="CEFkT6I1sK-ko6ua7co4-1" value="app" style="rounded=1;whiteSpace=wrap;html=1;sketch=1;fontSize=16;labelBackgroundColor=default;fillColor=#dae8fc;strokeColor=#6c8ebf;" parent="WIyWlLk6GJQsqaUBKTNV-1" vertex="1">
          <mxGeometry x="90" y="60" width="110" height="90" as="geometry" />
        </mxCell>
        <mxCell id="CEFkT6I1sK-ko6ua7co4-29" style="edgeStyle=none;rounded=0;sketch=1;orthogonalLoop=1;jettySize=auto;html=1;exitX=0;exitY=1;exitDx=0;exitDy=0;entryX=0.936;entryY=1.033;entryDx=0;entryDy=0;entryPerimeter=0;strokeWidth=2;fontSize=16;" parent="WIyWlLk6GJQsqaUBKTNV-1" source="CEFkT6I1sK-ko6ua7co4-2" target="CEFkT6I1sK-ko6ua7co4-14" edge="1">
          <mxGeometry relative="1" as="geometry" />
        </mxCell>
        <mxCell id="CEFkT6I1sK-ko6ua7co4-2" value="微信资源和授权服务" style="rounded=1;whiteSpace=wrap;html=1;labelBackgroundColor=default;sketch=1;fontSize=16;fillColor=#d5e8d4;strokeColor=#82b366;" parent="WIyWlLk6GJQsqaUBKTNV-1" vertex="1">
          <mxGeometry x="460" y="170" width="100" height="210" as="geometry" />
        </mxCell>
        <mxCell id="CEFkT6I1sK-ko6ua7co4-4" value="" style="endArrow=classic;html=1;rounded=0;sketch=1;strokeWidth=2;fontSize=16;exitX=1;exitY=0.5;exitDx=0;exitDy=0;entryX=0;entryY=0;entryDx=0;entryDy=0;" parent="WIyWlLk6GJQsqaUBKTNV-1" source="CEFkT6I1sK-ko6ua7co4-1" target="CEFkT6I1sK-ko6ua7co4-2" edge="1">
          <mxGeometry width="50" height="50" relative="1" as="geometry">
            <mxPoint x="390" y="370" as="sourcePoint" />
            <mxPoint x="450" y="195" as="targetPoint" />
          </mxGeometry>
        </mxCell>
        <mxCell id="CEFkT6I1sK-ko6ua7co4-5" value="2.申请微信用户授权" style="text;html=1;strokeColor=none;fillColor=none;align=center;verticalAlign=middle;whiteSpace=wrap;rounded=0;labelBackgroundColor=default;sketch=1;fontSize=16;" parent="WIyWlLk6GJQsqaUBKTNV-1" vertex="1">
          <mxGeometry x="240" y="160" width="159.5" height="30" as="geometry" />
        </mxCell>
        <mxCell id="CEFkT6I1sK-ko6ua7co4-11" value="" style="endArrow=classic;html=1;rounded=0;sketch=1;strokeWidth=2;fontSize=16;entryX=0;entryY=0.097;entryDx=0;entryDy=0;entryPerimeter=0;startArrow=none;" parent="WIyWlLk6GJQsqaUBKTNV-1" source="CEFkT6I1sK-ko6ua7co4-9" target="CEFkT6I1sK-ko6ua7co4-1" edge="1">
          <mxGeometry width="50" height="50" relative="1" as="geometry">
            <mxPoint x="-170" y="200" as="sourcePoint" />
            <mxPoint x="-120" y="180" as="targetPoint" />
            <Array as="points">
              <mxPoint x="90" y="105" />
            </Array>
          </mxGeometry>
        </mxCell>
        <mxCell id="CEFkT6I1sK-ko6ua7co4-21" value="&lt;span style=&quot;&quot;&gt;1.请求授权&lt;/span&gt;" style="edgeLabel;html=1;align=center;verticalAlign=middle;resizable=0;points=[];fontSize=16;" parent="CEFkT6I1sK-ko6ua7co4-11" vertex="1" connectable="0">
          <mxGeometry x="0.3371" y="3" relative="1" as="geometry">
            <mxPoint y="-1" as="offset" />
          </mxGeometry>
        </mxCell>
        <mxCell id="CEFkT6I1sK-ko6ua7co4-9" value="Actor" style="shape=umlActor;verticalLabelPosition=bottom;verticalAlign=top;html=1;labelBackgroundColor=default;sketch=1;fontSize=16;" parent="WIyWlLk6GJQsqaUBKTNV-1" vertex="1">
          <mxGeometry x="-180" y="170" width="30" height="60" as="geometry" />
        </mxCell>
        <mxCell id="CEFkT6I1sK-ko6ua7co4-13" value="" style="endArrow=none;html=1;rounded=0;sketch=1;strokeWidth=2;fontSize=16;entryX=0;entryY=0.097;entryDx=0;entryDy=0;entryPerimeter=0;" parent="WIyWlLk6GJQsqaUBKTNV-1" target="CEFkT6I1sK-ko6ua7co4-9" edge="1">
          <mxGeometry width="50" height="50" relative="1" as="geometry">
            <mxPoint x="-170" y="200" as="sourcePoint" />
            <mxPoint x="90" y="199.70000000000005" as="targetPoint" />
          </mxGeometry>
        </mxCell>
        <mxCell id="CEFkT6I1sK-ko6ua7co4-23" style="rounded=0;sketch=1;orthogonalLoop=1;jettySize=auto;html=1;exitX=1;exitY=0;exitDx=0;exitDy=0;entryX=0;entryY=0.5;entryDx=0;entryDy=0;strokeWidth=2;fontSize=16;" parent="WIyWlLk6GJQsqaUBKTNV-1" source="CEFkT6I1sK-ko6ua7co4-14" target="CEFkT6I1sK-ko6ua7co4-2" edge="1">
          <mxGeometry relative="1" as="geometry" />
        </mxCell>
        <mxCell id="CEFkT6I1sK-ko6ua7co4-24" value="6.code 换取Access Token" style="edgeLabel;html=1;align=center;verticalAlign=middle;resizable=0;points=[];fontSize=16;rotation=-15;" parent="CEFkT6I1sK-ko6ua7co4-23" vertex="1" connectable="0">
          <mxGeometry x="-0.2486" y="-2" relative="1" as="geometry">
            <mxPoint x="3" y="-19" as="offset" />
          </mxGeometry>
        </mxCell>
        <mxCell id="CEFkT6I1sK-ko6ua7co4-27" style="edgeStyle=none;rounded=0;sketch=1;orthogonalLoop=1;jettySize=auto;html=1;exitX=1;exitY=0.75;exitDx=0;exitDy=0;entryX=-0.01;entryY=0.824;entryDx=0;entryDy=0;strokeWidth=2;fontSize=16;entryPerimeter=0;" parent="WIyWlLk6GJQsqaUBKTNV-1" source="CEFkT6I1sK-ko6ua7co4-14" target="CEFkT6I1sK-ko6ua7co4-2" edge="1">
          <mxGeometry relative="1" as="geometry" />
        </mxCell>
        <mxCell id="CEFkT6I1sK-ko6ua7co4-28" value="8.根据Access Token获取用户信息" style="edgeLabel;html=1;align=center;verticalAlign=middle;resizable=0;points=[];fontSize=16;rotation=-15;" parent="CEFkT6I1sK-ko6ua7co4-27" vertex="1" connectable="0">
          <mxGeometry x="-0.243" relative="1" as="geometry">
            <mxPoint x="32" y="-23" as="offset" />
          </mxGeometry>
        </mxCell>
        <mxCell id="CEFkT6I1sK-ko6ua7co4-14" value="第三应用服务" style="rounded=1;whiteSpace=wrap;html=1;sketch=1;fontSize=16;labelBackgroundColor=default;fillColor=#dae8fc;strokeColor=#6c8ebf;" parent="WIyWlLk6GJQsqaUBKTNV-1" vertex="1">
          <mxGeometry x="90" y="340" width="110" height="90" as="geometry" />
        </mxCell>
        <mxCell id="CEFkT6I1sK-ko6ua7co4-15" value="" style="endArrow=classic;html=1;rounded=0;sketch=1;strokeWidth=2;fontSize=16;entryX=1;entryY=1;entryDx=0;entryDy=0;entryPerimeter=0;exitX=0.01;exitY=0.306;exitDx=0;exitDy=0;exitPerimeter=0;" parent="WIyWlLk6GJQsqaUBKTNV-1" source="CEFkT6I1sK-ko6ua7co4-2" target="CEFkT6I1sK-ko6ua7co4-9" edge="1">
          <mxGeometry width="50" height="50" relative="1" as="geometry">
            <mxPoint x="390" y="330" as="sourcePoint" />
            <mxPoint x="440" y="290" as="targetPoint" />
          </mxGeometry>
        </mxCell>
        <mxCell id="CEFkT6I1sK-ko6ua7co4-16" value="3.返回授权地址" style="edgeLabel;html=1;align=center;verticalAlign=middle;resizable=0;points=[];fontSize=16;" parent="CEFkT6I1sK-ko6ua7co4-15" vertex="1" connectable="0">
          <mxGeometry x="-0.3028" relative="1" as="geometry">
            <mxPoint as="offset" />
          </mxGeometry>
        </mxCell>
        <mxCell id="CEFkT6I1sK-ko6ua7co4-17" value="" style="endArrow=classic;html=1;rounded=0;sketch=1;strokeWidth=2;fontSize=16;" parent="WIyWlLk6GJQsqaUBKTNV-1" edge="1">
          <mxGeometry width="50" height="50" relative="1" as="geometry">
            <mxPoint x="-130" y="220" as="sourcePoint" />
            <mxPoint x="104.75" y="140" as="targetPoint" />
          </mxGeometry>
        </mxCell>
        <mxCell id="CEFkT6I1sK-ko6ua7co4-20" value="&lt;span style=&quot;background-color: rgb(248, 249, 250);&quot;&gt;4. 用户授权带有code&lt;/span&gt;" style="edgeLabel;html=1;align=center;verticalAlign=middle;resizable=0;points=[];fontSize=16;" parent="CEFkT6I1sK-ko6ua7co4-17" vertex="1" connectable="0">
          <mxGeometry x="0.1399" y="-1" relative="1" as="geometry">
            <mxPoint as="offset" />
          </mxGeometry>
        </mxCell>
        <mxCell id="CEFkT6I1sK-ko6ua7co4-25" value="" style="endArrow=classic;html=1;rounded=0;sketch=1;strokeWidth=2;fontSize=16;entryX=1;entryY=0.25;entryDx=0;entryDy=0;exitX=0.01;exitY=0.648;exitDx=0;exitDy=0;exitPerimeter=0;" parent="WIyWlLk6GJQsqaUBKTNV-1" source="CEFkT6I1sK-ko6ua7co4-2" target="CEFkT6I1sK-ko6ua7co4-14" edge="1">
          <mxGeometry width="50" height="50" relative="1" as="geometry">
            <mxPoint x="390" y="340" as="sourcePoint" />
            <mxPoint x="440" y="290" as="targetPoint" />
          </mxGeometry>
        </mxCell>
        <mxCell id="CEFkT6I1sK-ko6ua7co4-26" value="7.返回Access Token" style="edgeLabel;html=1;align=center;verticalAlign=middle;resizable=0;points=[];fontSize=16;rotation=-15;" parent="CEFkT6I1sK-ko6ua7co4-25" vertex="1" connectable="0">
          <mxGeometry x="0.2556" y="-3" relative="1" as="geometry">
            <mxPoint as="offset" />
          </mxGeometry>
        </mxCell>
        <mxCell id="CEFkT6I1sK-ko6ua7co4-30" value="9 返回用户信息" style="text;html=1;align=center;verticalAlign=middle;resizable=0;points=[];autosize=1;strokeColor=none;fillColor=none;fontSize=16;rotation=-10;" parent="WIyWlLk6GJQsqaUBKTNV-1" vertex="1">
          <mxGeometry x="269.5" y="400" width="130" height="30" as="geometry" />
        </mxCell>
      </root>
    </mxGraphModel>
  </diagram>
</mxfile>
